<?xml version="1.0" encoding="UTF-8"?>
<svg version="1.1" viewBox="0 0 338 267" xmlns="http://www.w3.org/2000/svg" xmlns:xlink="http://www.w3.org/1999/xlink">
 <defs>
  <path id="e" d="m452.88-150.77 2.6722-114.7 5.7555-10.072h1.4389l6.1666 10.894v113.26z" fill="none" stroke="#000" stroke-width=".1"/>
  <path id="f" d="m445.16-168.31s13.67-7.5451 17.162-11.321c3.492-3.7757 29.974-33.402 36.377-41.535 6.4031-8.1334 19.5-24.109 25.318-28.464 5.8181-4.3549 16.581-11.903 16.581-11.903s-7.8652 17.144-17.471 30.216c-9.6055 13.072-34.925 42.699-40.164 49.38-5.2389 6.681-17.173 22.658-17.173 22.658z" fill="none" stroke="#3d3d3d" stroke-width=".1"/>
  <path id="B" d="m255.92-106.89 1.2333 26.414 2.3639-.30833z" fill="#585856" filter="url(#a)"/>
  <linearGradient id="aa" x1="26.649" x2="135.67" y1="20.604" y2="114.4" gradientTransform="matrix(.080158 -.089024 .089884 .080932 126.65 190.48)" gradientUnits="userSpaceOnUse">
   <stop style="stop-color:#5a9fd4" offset="0"/>
   <stop style="stop-color:#306998" offset="1"/>
  </linearGradient>
  <linearGradient id="ab" x1="150.96" x2="112.03" y1="192.35" y2="137.27" gradientTransform="matrix(.080158 -.089024 .089884 .080932 126.65 190.48)" gradientUnits="userSpaceOnUse">
   <stop style="stop-color:#ffd43b" offset="0"/>
   <stop style="stop-color:#ffe873" offset="1"/>
  </linearGradient>
 </defs>
 <defs>
  <linearGradient id="b">
   <stop stop-color="#dfe0db" offset="0"/>
   <stop stop-color="#787976" offset=".49415"/>
   <stop stop-color="#81817e" offset=".60805"/>
   <stop stop-color="#8a8a87" offset="1"/>
  </linearGradient>
  <linearGradient id="c">
   <stop stop-color="#2c2c2c" offset="0"/>
   <stop stop-color="#2c2c2c" stop-opacity="0" offset="1"/>
  </linearGradient>
  <linearGradient id="d">
   <stop stop-color="#fff" offset="0"/>
   <stop stop-color="#fff" stop-opacity="0" offset="1"/>
  </linearGradient>
  <linearGradient id="ae" x1="284.13" x2="313.06" y1="-59.311" y2="4.9333" gradientTransform="rotate(-1.146 392.35 2587.7)" gradientUnits="userSpaceOnUse" xlink:href="#b"/>
  <linearGradient id="m" x1="1221.4" x2="1277.1" y1="629.02" y2="629.02" gradientTransform="matrix(.48302 -.07789 .07789 .48302 -428.38 132.05)" gradientUnits="userSpaceOnUse" xlink:href="#b"/>
  <linearGradient id="n" x1="1267.6" x2="1268.1" y1="511.85" y2="682.36" gradientUnits="userSpaceOnUse">
   <stop stop-color="#dfe0db" offset="0"/>
   <stop stop-color="#787976" offset=".49415"/>
   <stop stop-color="#81817e" offset=".60805"/>
   <stop stop-color="#8a8a87" stop-opacity=".604" offset="1"/>
  </linearGradient>
  <linearGradient id="o" x1="378.54" x2="395.58" y1="-160.54" y2="-160.54" gradientTransform="translate(66.382 -76.425)" gradientUnits="userSpaceOnUse">
   <stop stop-color="#2b2b29" offset="0"/>
   <stop stop-color="#393b3a" offset=".074279"/>
   <stop stop-color="#5f6160" offset=".17933"/>
   <stop stop-color="#f3f5f4" offset=".28942"/>
   <stop stop-color="#dde3e3" offset=".57885"/>
   <stop stop-color="#585d60" offset=".69615"/>
   <stop stop-color="#a8b0b2" offset=".88462"/>
   <stop stop-color="#6c7477" offset="1"/>
  </linearGradient>
  <linearGradient id="v" x1="402.33" x2="409.3" y1="-140.99" y2="-134.88" gradientTransform="translate(18.605 2.3256)" gradientUnits="userSpaceOnUse">
   <stop stop-color="#ebebeb" offset="0"/>
   <stop stop-color="#b2b2b2" offset="1"/>
  </linearGradient>
  <linearGradient id="z" x1="1401.3" x2="1414.6" y1="838.13" y2="806.52" gradientTransform="matrix(.48302 -.07789 .07789 .48302 -428.38 132.05)" gradientUnits="userSpaceOnUse" xlink:href="#b"/>
  <linearGradient id="bb" x1="113.61" x2="270.36" y1="-89.401" y2="-81.178" gradientUnits="userSpaceOnUse" xlink:href="#b"/>
  <linearGradient id="aw" x1="509.22" x2="602.24" y1="-94.138" y2="-95.93" gradientUnits="userSpaceOnUse">
   <stop stop-color="#d8d8d4" offset="0"/>
   <stop stop-color="#d9dad5" offset=".32364"/>
   <stop stop-color="#c0c1bc" offset=".64729"/>
   <stop stop-color="#787976" offset=".73216"/>
   <stop stop-color="#81817e" offset=".91443"/>
   <stop stop-color="#8a8a87" offset="1"/>
  </linearGradient>
  <linearGradient id="at" x1="933.84" x2="989.59" y1="574.78" y2="772.8" gradientUnits="userSpaceOnUse" xlink:href="#b"/>
  <linearGradient id="aq" x1="1342.5" x2="1478.1" y1="715.25" y2="715.25" gradientTransform="matrix(.48302 -.07789 .07789 .48302 -428.38 132.05)" gradientUnits="userSpaceOnUse">
   <stop stop-color="#dfe0db" offset="0"/>
   <stop stop-color="#787976" offset=".49415"/>
   <stop stop-color="#81817e" offset=".60805"/>
   <stop stop-color="#8a8a87" offset="1"/>
  </linearGradient>
  <linearGradient id="ap" x1="334.33" x2="335.85" y1="435.99" y2="430.99" gradientUnits="userSpaceOnUse">
   <stop stop-color="#414242" offset="0"/>
   <stop stop-color="#414242" stop-opacity="0" offset="1"/>
  </linearGradient>
  <linearGradient id="ag" x1="233.04" x2="250.1" y1="620.35" y2="620.35" gradientUnits="userSpaceOnUse" xlink:href="#b"/>
  <filter id="af" x="-.042015" y="-.055973" width="1.084" height="1.1119" color-interpolation-filters="sRGB">
   <feGaussianBlur stdDeviation="10.920062"/>
  </filter>
  <filter id="k" x="-.12782" y="-.10339" width="1.2555" height="1.2068" color-interpolation-filters="sRGB">
   <feGaussianBlur stdDeviation=".85637256"/>
  </filter>
  <filter id="l" x="-.19459" y="-.074441" width="1.3913" height="1.1384" color-interpolation-filters="sRGB">
   <feGaussianBlur stdDeviation="1.4232833"/>
  </filter>
  <filter id="q" x="-.16127" y="-.020714" width="1.3225" height="1.0414" color-interpolation-filters="sRGB">
   <feGaussianBlur stdDeviation="1.0560352"/>
  </filter>
  <filter id="s" x="-.44267" y="-.049878" width="1.8853" height="1.0998" color-interpolation-filters="sRGB">
   <feGaussianBlur stdDeviation=".2267442"/>
  </filter>
  <filter id="u" x="-.39338" y="-.063137" width="1.7868" height="1.1263" color-interpolation-filters="sRGB">
   <feGaussianBlur stdDeviation=".20276152"/>
  </filter>
  <filter id="y" x="-.038468" y="-.036237" width="1.077" height="1.0716" color-interpolation-filters="sRGB">
   <feGaussianBlur stdDeviation="1.4826909"/>
  </filter>
  <filter id="a" x="-2775.3" y="-377.99" width="5551.4" height="756.98" color-interpolation-filters="sRGB">
   <feGaussianBlur stdDeviation=".37513656"/>
  </filter>
  <filter id="ax" x="-.029802" y="-.12021" width="1.0555" height="1.2368" color-interpolation-filters="sRGB">
   <feGaussianBlur stdDeviation="1.1777015"/>
  </filter>
  <filter id="au" x="-.059396" y="-.21114" width="1.1596" height="1.492" color-interpolation-filters="sRGB">
   <feGaussianBlur stdDeviation=".56316498"/>
  </filter>
  <filter id="ao" x="-.022528" y="-.025677" width="1.0451" height="1.0514" color-interpolation-filters="sRGB">
   <feGaussianBlur stdDeviation="3.205601"/>
  </filter>
  <filter id="Q" x="-.051764" y="-.16378" width="1.072" height="1.453" color-interpolation-filters="sRGB">
   <feGaussianBlur stdDeviation=".3821076"/>
  </filter>
  <filter id="ak" x="-.018499" y="-4.93" width="1.037" height="10.86" color-interpolation-filters="sRGB">
   <feGaussianBlur stdDeviation=".7776163"/>
  </filter>
  <filter id="ai" x="-.048631" y="-.074602" width="1.1247" height="1.1229" color-interpolation-filters="sRGB">
   <feGaussianBlur stdDeviation=".37963568"/>
  </filter>
  <filter id="ah" x="-.072" y="-.072" width="1.144" height="1.144" color-interpolation-filters="sRGB">
   <feGaussianBlur stdDeviation=".52629456"/>
  </filter>
  <radialGradient id="ad" cx="229.37" cy="-39.348" r="2.5538" gradientTransform="matrix(.99236 -.12341 2.7888 22.424 111.49 871.3)" gradientUnits="userSpaceOnUse">
   <stop stop-color="#292a24" offset="0"/>
   <stop stop-color="#292a24" stop-opacity="0" offset="1"/>
  </radialGradient>
  <radialGradient id="r" cx="390.26" cy="-207.77" r="2.643" gradientTransform="matrix(1.2552 -.14751 .70939 6.036 48.533 1104.3)" gradientUnits="userSpaceOnUse">
   <stop stop-color="#3d3d3d" offset="0"/>
   <stop stop-color="#3d3d3d" stop-opacity="0" offset="1"/>
  </radialGradient>
  <radialGradient id="t" cx="386.63" cy="-208.02" r="3.3762" gradientTransform="matrix(.99912 .04186 -.25831 6.1662 -53.396 1059.7)" gradientUnits="userSpaceOnUse">
   <stop stop-color="#676767" offset="0"/>
   <stop stop-color="#676767" stop-opacity="0" offset="1"/>
  </radialGradient>
  <radialGradient id="w" cx="448.67" cy="-170.51" r="12.044" gradientTransform="matrix(.29896 .24955 -1.4016 1.679 75.554 3.8169)" gradientUnits="userSpaceOnUse">
   <stop stop-color="#2b2b29" offset="0"/>
   <stop stop-color="#2b2b29" stop-opacity="0" offset="1"/>
  </radialGradient>
  <radialGradient id="ba" cx="163.21" cy="-101.3" r="19.117" gradientTransform="matrix(-1.9166 .23652 -.02183 -.17691 473.81 -157.82)" gradientUnits="userSpaceOnUse" xlink:href="#c"/>
  <radialGradient id="az" cx="220.1" cy="-88.253" r="100.91" gradientTransform="matrix(1.056 -.10851 .03113 .30297 -9.576 -99.122)" gradientUnits="userSpaceOnUse">
   <stop stop-color="#d9d9d9" offset="0"/>
   <stop stop-color="#d9d9d9" stop-opacity="0" offset="1"/>
  </radialGradient>
  <radialGradient id="av" cx="526.36" cy="-69.049" r="17.113" gradientTransform="matrix(.92336 -.41186 .35677 .79984 64.973 199.26)" gradientUnits="userSpaceOnUse">
   <stop offset="0"/>
   <stop stop-opacity="0" offset="1"/>
  </radialGradient>
  <radialGradient id="as" cx="163.21" cy="-101.3" r="19.117" gradientTransform="matrix(.21974 -3.1429 -.29011 -.02028 882.19 1139.1)" gradientUnits="userSpaceOnUse" xlink:href="#c"/>
  <radialGradient id="ar" cx="1410.3" cy="715.25" r="67.27" gradientTransform="matrix(.48302 -.07789 .08783 .54466 -435.49 87.957)" gradientUnits="userSpaceOnUse">
   <stop stop-color="#4d4d4d" offset="0"/>
   <stop stop-color="#4d4d4d" stop-opacity="0" offset="1"/>
  </radialGradient>
  <radialGradient id="an" cx="186.57" cy="103.77" r="22.767" gradientTransform="matrix(1.4467 .14172 -.02212 .22577 -10.518 -41.382)" gradientUnits="userSpaceOnUse" xlink:href="#d"/>
  <radialGradient id="am" cx="188.9" cy="109.63" r="22.767" gradientTransform="matrix(1.9968 0 0 .09919 -172.42 122.86)" gradientUnits="userSpaceOnUse" xlink:href="#d"/>
  <radialGradient id="al" cx="299.27" cy="121.8" r="80.337" gradientTransform="matrix(1 0 0 .0393 68.605 -30.612)" gradientUnits="userSpaceOnUse">
   <stop stop-color="#fff" offset="0"/>
   <stop stop-color="#fff" stop-opacity="0" offset="1"/>
  </radialGradient>
  <radialGradient id="aj" cx="502.34" cy="-101.24" r="14.008" gradientTransform="matrix(.69003 .00171 -.00181 .72871 116.18 55.785)" gradientUnits="userSpaceOnUse">
   <stop stop-color="#fbfbfb" offset="0"/>
   <stop stop-color="#fbfbfb" stop-opacity="0" offset="1"/>
  </radialGradient>
  <clipPath id="ac">
   <path d="m309.12 87.98-23.852-5.6221s-14.738 22.054-20.585 33.916c-2.9592 6.0026-6.1776 12.112-7.2702 18.715-.89361 5.3999-.48164 11.06.6982 16.405 1.2912 5.8489 2.3253 8.9411 6.865 16.606 2.6858 4.5349 10.643 11.693 10.643 11.693l-2.0928-35.262c-5.499-.97776-4.8527-8.6815-2.8934-11.636l11.479-17.31c1.6564-2.4977 8.7188-3.4552 12.352-.79614 3.6333 2.659 4.9655 8.5146 3.5422 12.606-1.4232 4.0915-8.9579 7.0185-8.9579 7.0185s1.4462 3.4093 7.5451 2.2673c5.7178-1.0707 9.7118-4.7838 12.302-11.233.92284-2.2978 1.9307-4.6288 2.225-7.0874 1.2022-10.044-1.9996-30.281-1.9996-30.281z" fill="none" stroke="#000" stroke-width=".1"/>
  </clipPath>
  <clipPath id="p">
   <use stroke-width=".1" xlink:href="#e"/>
  </clipPath>
  <clipPath id="x">
   <use stroke-width=".1" xlink:href="#f"/>
  </clipPath>
  <clipPath id="ay">
   <path d="M147.69-160.65c1.3741.27481 4.7696-9.625 27.085-17.953 25.514-9.5214 51.404-7.6287 74.659-8.2101 23.256-.5814 33.14-.5814 50.581-1.1628 17.442-.5814 41.837-2.1909 41.837-2.1909l-2.302 30.098-41.743 3.194s.18793-2.4423-4.4632-2.4423c-4.6512 0-4.8567 1.9145-4.8567 1.9145s-13.323 1.1261-31.495 3.7292c-8.5678 1.2273-28.817 4.5806-50.851 4.8214-16.288.17802-26.914.34058-39.705-4.892s-18.746-6.9062-18.746-6.9062z" fill="none" opacity=".60153" stroke="#1f1f1f" stroke-width=".1"/>
  </clipPath>
 </defs>
 <g transform="translate(-62.558 -274.73)">
  <path transform="matrix(.48302 -.07789 .07789 .48302 -428.38 132.05)" d="M1237.6 525.97s-6.0453 8.4836-7.9688 34.312c-1.2759 17.133 3.3041 63.816 6.5625 93.594l-8.1563 18.063s-20.455 10.103-25.406 15.812c-4.9509 5.7106-3.8486 3.6402-5 13.313-1.1513 9.6721 6.9859 32.046 6.4062 43.125-.2101 4.0234-5.8544 18.937-12.906 36.25-.657-.9927-1.24-2.4768-1.5625-4.75-1.0655-7.5136 2-8.2813 2-8.2813s-1.2293-21.8-1.1875-51.75c.01-7.0603.1979-18.941-.1875-33.531-.048-1.8225-.088-3.69-.1563-5.5937-.4755-13.326-1.493-28.498-3.5312-44.094-3.4438-26.352-5.6177-43.569-17-63.031s-15.438-28.688-15.438-28.688c.047.1348.041.284-.031.4688-.034.086-.1291.2123-.1874.3124-.3424-.7264-.6563-1.375-.6563-1.375.7587 2.1578-14.441 9.8902-22.781 47.844-9.5344 43.394-.5445 84.802 3.8438 122.5s6.631 53.662 9.6875 81.969c1.3317 12.332 2.6544 26.708 3.7187 39.156l-6.75-7.1562s-8.9729 8.1099-12.719 5.4374c-3.7457-2.6721 2.8437-14.5 2.8437-14.5l-7.625 10.125-4.7812-4.4062 3.0312-14.312-7.8124 9.9375-4.7813-4.4062 3.2187-14.156-8 9.7813-4.7812-4.4063 3.4062-13.969-8.1874 9.5937-4.7813-4.4063 3.625-13.781-8.4063 9.4062-4.7812-4.4062 3.8125-13.594-8.5937 9.2188-4.7813-4.4062 4-13.438-8.7813 9.0626-4.7812-4.4063 4.1875-13.25-8.9687 8.875-4.7813-4.4063 4.4063-13.062-9.1876 8.6874-4.7812-4.4062 4.5938-12.875-9.375 8.5-4.7813-4.4062 4.7813-12.719-9.5626 8.3438-4.7812-4.4063 4.9688-12.531-9.75 8.1563-4.7813-4.4063 5.1563-12.344-9.9376 7.9687-4.7812-4.4062 5.375-12.156-10.156 7.7812-4.7813-4.4062 5.5625-12-10.344 7.625-4.7812-4.4063 5.75-11.812-10.531 7.4375-4.7813-4.4063 5.9375-11.625-10.719 7.25-4.7812-4.4062 6.1562-11.438-10.937 7.0625-4.7813-4.4062 6.5937-11.031-22.375-18.406s-5.3941 29.004 1.7813 41.219c5.606 9.5433 119.69 137.78 170.5 194.75l-6.8437-1.9062s-31.54 35.108-31.969 36.156c-.345.843 10.691-2.3566 18.594-5.9688-4.205 4.1946-6.8061 9.4978-7.8126 16.063-1.6842 10.996 3.3438 13.594 3.3438 13.594s4.3368-13.59 10.375-16.156c6.0383-2.5661 14.67-.1764 18.594 6.375 3.9239 6.5527 2.5298 19.294-1.1563 22.281l-25.562 20.719c-4.3602 3.5342-15.713 4.6968-17.156-5.2187l-52.063-3.7813s10.589 14.345 17.281 19.188c11.312 8.1845 15.868 10.046 24.5 12.375 7.8875 2.1268 16.25 2.8608 24.219 1.25 9.7446-1.9714 18.735-7.7579 27.594-13.094 17.505-10.544 50.062-37.125 50.062-37.125l-.6875-3.625c5.4928 2.6107 10.112 3.0212 28.5 1.6875 17.27-1.2524 100.58-72.359 145.28-111.5l103.62 140.31 16.406 7.6875 1.8125-1.2813-1.9062-19.437-79.031-112.44c3.5941 1.7437 6.3729 2.9846 7.5625 3.2813 6.595 1.6447 10.605-1.8975 15.281-4.2813 4.6767-2.3835 14.688-9.5312 14.688-9.5312s1.4882 22.167 5.625 27.344c4.1363 5.1766 3.1155 4.8513 9.0312 3.9687 5.9157-.8827 19.781-14.938 19.781-14.938s.9522 21.71 3.375 25.656c2.4232 3.9462 4.8854 4.7332 10.719 3.6563 5.8333-1.0769 18.656-13.531 18.656-13.531l2.25 20.906s1.3404 5.1807 4.5 7.0313c3.1599 1.8502 6.3038 2.4088 11.875-.5626 5.5713-2.9711 15.5-18.906 15.5-18.906l-2.5312-1.9375-20.312 14.375s-.4511-22.143-4.25-27.375c-3.799-5.2317-3.1419-4.7046-9.0313-3.9687-5.889.7356-18.906 14.406-18.906 14.406s-2.0605-20.836-4.8125-25.969c-2.752-5.1326-4.1299-5.0244-6.7812-5.6562-2.6509-.6319-5.3437 1.6875-5.3437 1.6875s-11.614 11.262-15.25 14.688c-3.6362 3.425-4.25-25.885-6.1875-29.344-1.9376-3.4584-2.6626-4.5293-9.0312-3.9687-6.3687.5606-23.719 15.812-23.719 15.812l-10.469-5.6562 5.8126-21.906c5.794-.7156 11.301-1.3518 15.281-1.7813 13.91-1.5005 78.025-5.6769 104.5-9.375 26.475-3.6976 55.75-14.156 55.75-14.156s-21.294-4.0171-33.125-5.875c-11.831-1.858-45.755 1.0777-62.719 2.875-16.963 1.7973-82.371 4.5913-90.844 4.8125-2.5801.067-6.6691-.5708-11.094-1.5-.8788-5.4601-1.7053-10.7-1.9688-13-.6929-6.0497 142.78-115.19 142.78-115.19.0005 0-7.7527-18.408-14.656-24.844-6.9036-6.4357-15.02-11.371-24.844-12.406-9.2464-.9744-9.5786-3.5192-27.031 5.9688l.9062-3.25-68-62.875-31.812-19.531-14.219 14.188 17.281 25.625 36.438 17.781s13.175 8.709 14.156 17.813c.9815 9.1025-2.4906 14.392-6.0625 18.562-3.572 4.1703-3.0625 3.5626-3.0625 3.5626l-8.4375-8.25-3.0625 10.812 8.75 8.5s8.0963-10.067 11.969-6.75c3.8715 3.3176-4.1563 14.5-4.1563 14.5l4 3.3126c-29.313 23.517-69.559 56.582-109.44 89.656l-14.062-84.219c11.306-30.469 29.272-85.969 32.188-105.75 3.9264-26.64 0-26.531 0-26.531l-42 87.844-22.406-94.344zm19.281 162.44c1.3301 1.2782 2.6428 2.7377 3.875 4.4375 8.3514 11.52 13.596 57.497 14.25 63.5-22.822 18.952-44.049 36.664-63.469 52.938l-3.8124-13.688-5.6563-5.6562s22.344-91.256 29.938-95.969c6.0631-3.763 17.658-2.3403 24.875-5.5625z" filter="url(#af)" opacity=".5"/>
  <g transform="matrix(-.14045 -.87097 -.71284 .11495 173.11 742.22)">
   <g transform="rotate(32.995 279.55 -2.0985)">
    <path d="m248.08-86.729-23.067 8.2737s-.351 26.523 1.2038 39.656c.7868 6.646 1.4145 13.523 4.0936 19.655 2.1911 5.0156 5.6191 9.5389 9.5192 13.379 4.268 4.2025 6.8193 6.2328 14.801 10.19 4.7222 2.3409 15.294 4.0118 15.294 4.0118l-20.96-28.436c-5.1446 2.1745-8.7977-4.6388-8.7633-8.1837l.20168-20.769c.0291-2.9969 5.4311-7.6458 9.9264-7.3942 4.4953.25162 8.8014 4.4373 9.8358 8.644s-3.6912 10.765-3.6912 10.765 3.0696 2.0719 7.5629-2.2071c4.2126-4.0117 5.5404-9.3009 4.2009-16.12-.47727-2.4297-.90134-4.9337-1.9934-7.156-4.4613-9.0787-18.167-24.308-18.167-24.308z" fill="url(#ae)"/>
    <path d="m226.82-57.662 3.4884 36.628s2.4709-5.6686 1.3081-17.587c-1.1628-11.919-4.7965-19.041-4.7965-19.041z" fill="url(#ad)"/>
   </g>
   <g transform="translate(-9.8837 -178.2)" clip-path="url(#ac)" fill="none">
    <path d="M270.93 137.5s-2.9716.0466 2.7616-9.8837c7.1221-10.756 11.195-18.52 15.846-12.996 4.6512 5.5233-18.608 22.88-18.608 22.88z" filter="url(#k)" stroke="#000"/>
    <path d="m313.23 82.703-4.1043 5.2767s2.2147 14.636 1.6333 24.084c-.58139 9.4477-1.3081 11.192-3.7791 15.843-2.4709 4.6512-5.3779 16.279-4.7965 15.988.5814-.2907 20.058-21.657 20.058-21.657z" filter="url(#l)" stroke="#fff"/>
   </g>
  </g>
  <path d="M205.54 284.18s-2.2652 4.5803-1.1825 17.206 13.957 57.105 13.957 57.105 6.1341-.76434 11.408 4.4916c5.2743 5.256 11.98 30.12 11.98 30.12l4.6841-1.4771-16.086-47.709z" fill="url(#m)"/>
  <path d="m194.13 445.92s12.756-48.307 12.174-53.702c-0.58303-5.3965-6.2548-15.579-6.4521-20.341-0.19721-4.7615-0.56255-3.6791 1.3841-6.8228 1.9468-3.1436 11.041-9.615 11.041-9.615l6.6691-24.579 4.2755-1.2491 13.919-47.293s1.8884-0.35633 2.0669 12.817-7.7936 59.805-9.8281 63.983c-2.0346 4.1779-10.177 3.7825-13.477 6.6502s-6.9779 48.692-6.9779 48.692l3.1669 2.2874 4.3103 9.3781-20.92 22.96z" fill="#fff"/>
  <path transform="matrix(.48302 -.07789 .07789 .48302 -428.38 132.05)" d="M1154 835.89s41.459-93.325 42.039-104.4c.5795-11.079-7.5519-33.471-6.4006-43.144 1.1514-9.6721.062-7.6068 5.0129-13.317 4.9512-5.7098 25.407-15.809 25.407-15.809l21.455-47.427 9.0336-1.1292 43.474-90.901s3.9264-.10455 0 26.536-35.186 118.14-40.651 125.91c-5.465 7.7683-21.766 4.3211-29.359 9.0336s-29.924 95.982-29.924 95.982l5.6461 5.646 5.646 20.326-49.685 39.522z" fill="url(#n)"/>
  <g transform="matrix(.54678 -.53306 -.53306 -.54678 15.598 570.12)">
   <path transform="translate(-65.466 75.988)" d="m445.42-174.58 2.6722-114.7 5.7555-10.072h1.4389l6.1666 10.894v113.26z" fill="url(#o)"/>
   <use transform="translate(-72.92 52.18)" clip-path="url(#p)" filter="url(#q)" xlink:href="#e"/>
   <path d="M390.26-225.29s.5814 7.9942.43605 14.68c-.14535 6.686 3.0523 16.279 3.0523 16.279" fill="none" filter="url(#s)" stroke="url(#r)" stroke-linecap="round" stroke-linejoin="round" stroke-width="2"/>
   <path d="M387.5-220.2s-.24664 8.1184-.87208 13.372c-.72675 6.1047-2.907 10.174-2.907 10.174" fill="none" filter="url(#u)" stroke="url(#t)" stroke-linecap="round" stroke-linejoin="round" stroke-width="2"/>
  </g>
  <g transform="rotate(36.58 -461.47 311.06) scale(.48927)">
   <g transform="translate(-266.02 62.761) scale(1.6479)">
    <path d="m387.79-110.76s13.663-7.5581 17.151-11.337c3.4884-3.7791 29.942-33.43 36.337-41.57 6.3954-8.1395 19.477-24.128 25.291-28.488 5.814-4.3605 16.57-11.919 16.57-11.919s-7.8488 17.151-17.442 30.233c-9.593 13.081-34.884 42.733-40.116 49.419-5.2326 6.686-17.151 22.674-17.151 22.674z" fill="url(#v)"/>
    <path d="m460.72-184.99-24.088 28.947s10.892-8.8946 14.985-14.029c4.093-5.1348 9.1035-14.918 9.1035-14.918z" fill="url(#w)"/>
   </g>
   <use transform="translate(-360.38 158.22) scale(1.6479)" clip-path="url(#x)" filter="url(#y)" opacity=".5" xlink:href="#f"/>
  </g>
  <path d="M271.33 417.81s27.693 9.9569 31.007 10.238c3.3136.28073 4.9816-1.7324 7.0547-3.248 2.0732-1.5156 6.3467-5.7565 6.3467-5.7565s2.457 10.597 4.8582 12.775c2.4012 2.1782 1.8826 2.0925 4.6713 1.2054 2.7887-.88711 8.3815-8.7546 8.3815-8.7546s2.1577 10.416 3.6354 12.133c1.4777 1.7173 2.7337 1.9116 5.4674.93709 2.7338-.97453 7.946-7.9849 7.946-7.9849l2.718 9.9146s1.0592 2.3979 2.7296 3.0456c1.6703.64768 3.2235.67298 5.683-1.1962s6.0168-10.332 6.0168-10.332l-1.3677-.74694-8.6982 8.5259s-1.9358-10.666-4.1782-12.897c-2.2425-2.2311-1.884-2.0196-4.6713-1.2054-2.7873.81419-8.0146 8.4275-8.0146 8.4275s-2.6235-9.9044-4.3526-12.169c-1.7291-2.2649-2.3826-2.1007-3.7124-2.1994s-2.4474 1.2341-2.4474 1.2341-4.7303 6.3404-6.2199 8.278-4.0814-12.178-5.2867-13.697c-1.2053-1.5197-1.6387-1.9722-4.6713-1.2054-3.0326.76684-10.223 9.4831-10.223 9.4831l-5.485-1.9136 1.1246-11.246-11.544-2.1838z" fill="url(#z)"/>
  <path d="M166.34 297.81c.53444.98259-6.2102 5.9123-7.2823 24.894-1.2258 21.703 6.3393 40.993 11.395 58.861 5.056 17.867 7.3932 25.403 11.074 38.838 3.6812 13.435 8.2228 32.414 8.2228 32.414l22.402-8.8722-7.4358-32.58s-1.8176.72081-2.9174-2.8252.31113-4.1554.31113-4.1554-2.2919-10.424-4.6045-24.893c-1.0902-6.8222-3.3221-23.053-8.349-39.909-3.716-12.46-6.1048-20.6-13.119-29.114-7.0138-8.5142-9.698-12.658-9.698-12.658z" fill="#fff"/>
  <g transform="matrix(.23647 .76239 .76239 -.23647 201.72 192.57)">
   <path d="M112.79-81.395c1.3741.27481 4.7696-9.6251 27.085-17.953 25.514-9.5214 51.404-7.6287 74.659-8.2101 23.256-.5814 33.14-.5814 50.581-1.1628 17.442-.5814 41.837-2.1909 41.837-2.1909l-2.302 30.098-41.743 3.194s.18793-2.4423-4.4632-2.4423c-4.6512 0-4.8567 1.9145-4.8567 1.9145s-13.323 1.1261-31.495 3.7292c-8.5678 1.2273-28.817 4.5806-50.851 4.8214-16.288.17802-26.914.34057-39.705-4.892s-18.746-6.9062-18.746-6.9062z" fill="url(#bb)" opacity=".60153"/>
   <use filter="url(#a)" xlink:href="#B"/>
   <path d="m144.09-98.981 38.233-5.3444s-6.9888 4.3166-15.828 5.55c-8.8388 1.2333-22.405-.20556-22.405-.20556z" fill="url(#ba)"/>
   <path transform="translate(-35.332 78.78)" d="M147.69-160.65c1.3741.27481 4.7696-9.625 27.085-17.953 25.514-9.5214 51.404-7.6287 74.659-8.2101 23.256-.5814 33.14-.5814 50.581-1.1628 17.442-.5814 41.837-2.1909 41.837-2.1909l-2.302 30.098-41.743 3.194s.18793-2.4423-4.4632-2.4423c-4.6512 0-4.8567 1.9145-4.8567 1.9145s-13.323 1.1261-31.495 3.7292c-8.5678 1.2273-28.817 4.5806-50.851 4.8214-16.288.17802-26.914.34058-39.705-4.892s-18.746-6.9062-18.746-6.9062z" clip-path="url(#ay)" fill="none" filter="url(#ax)" stroke="url(#az)" stroke-width="4"/>
  </g>
  <g transform="matrix(-.56331 -.34413 -.34413 .56331 559.32 547.79)">
   <path d="m505.52-104.65 68.605-2.6163 27.326 4.3605 1.1628 14.826-22.093 6.1047-29.07-7.5581s-11.628-1.4535-16.57 3.1977c-4.9419 4.6512-5.5232 9.3023-5.5232 13.372v3.4884l8.7209-.5814-3.4884 7.5581-9.0116.5814s.29069-9.593-3.4884-9.593-4.6512 10.174-4.6512 10.174l-31.977-.5814z" fill="url(#aw)"/>
   <path transform="rotate(-31.503 520.68 -53.959)" d="M508.95-71.034s7.6921 1.5784 13.198.15958c7.6463-1.9704 12.175-5.8566 16.326-11.453" fill="none" filter="url(#au)" opacity=".53257" stroke="url(#av)" stroke-width="4"/>
  </g>
  <g transform="matrix(.26931 -.40847 .40847 .26931 -422.69 610.24)">
   <path d="M976.34 564.92s-25.012 15.637-29.157 29.184c-4.1445 13.547-32.01 296.11-32.01 296.11l58.709 1.0517 4.0294-55.432s-12.039-1.13-12.604-5.6966c-.56482-4.5665 12.604-7.7211 12.604-7.7211l-12.604 1.2296v-6.4915l12.604-7.4562-12.604.96462v-6.4915l12.604-7.1912-12.604.69968v-6.4915l12.604-6.9263-12.604.43475v-6.4915l12.604-6.6613-12.604.16981v-6.4915l12.604-6.3964-12.604-.0951v-6.4915l12.604-6.1315-12.604-.36006v-6.4915l12.604-5.8665-12.604-.62505v-6.4915l12.604-5.6016-12.604-.88998v-6.4915l12.604-5.3366-12.604-1.155v-6.4915l12.604-5.0716-12.604-1.4199v-6.4915l12.604-4.8067-12.604-1.6848v-6.4915l12.604-4.5418-12.604-1.9498v-6.4915l12.604-4.2768-12.604-2.2147v-6.4915l12.604-4.0119-12.604-2.4796v-6.4915l12.604-3.747-12.604-2.7446v-6.4915l12.604-3.482-12.604-3.0095v-6.4915l12.604-3.2171-12.604-3.2744v-6.4915l12.604-2.6154z" fill="#fff"/>
   <path d="M976.34 564.92s-25.012 15.637-29.157 29.184c-4.1445 13.547-32.01 296.11-32.01 296.11l58.709 1.0517 4.0294-55.432s-12.039-1.13-12.604-5.6966c-.56482-4.5665 12.604-7.7211 12.604-7.7211l-12.604 1.2296v-6.4915l12.604-7.4562-12.604.96462v-6.4915l12.604-7.1912-12.604.69968v-6.4915l12.604-6.9263-12.604.43475v-6.4915l12.604-6.6613-12.604.16981v-6.4915l12.604-6.3964-12.604-.0951v-6.4915l12.604-6.1315-12.604-.36006v-6.4915l12.604-5.8665-12.604-.62505v-6.4915l12.604-5.6016-12.604-.88998v-6.4915l12.604-5.3366-12.604-1.155v-6.4915l12.604-5.0716-12.604-1.4199v-6.4915l12.604-4.8067-12.604-1.6848v-6.4915l12.604-4.5418-12.604-1.9498v-6.4915l12.604-4.2768-12.604-2.2147v-6.4915l12.604-4.0119-12.604-2.4796v-6.4915l12.604-3.747-12.604-2.7446v-6.4915l12.604-3.482-12.604-3.0095v-6.4915l12.604-3.2171-12.604-3.2744v-6.4915l12.604-2.6154z" fill="url(#at)" opacity=".602"/>
   <use transform="matrix(.22908 1.6153 1.6153 -.22908 1045.7 408.6)" filter="url(#a)" xlink:href="#B"/>
   <path d="m949.57 596.84-5.4037 62.75s6.4288-11.759 7.6744-26.266-2.2707-36.485-2.2707-36.485z" fill="url(#as)"/>
  </g>
  <path d="m281.28 390.68 7.6134 17.766s36.507-40.475 44.715-51.53c8.2084-11.055.54843-30.954.54843-30.954l-56.808 55.063z" fill="url(#ar)"/>
  <path d="m281.28 390.68 7.6134 17.766s36.507-40.475 44.715-51.53c8.2084-11.055.54843-30.954.54843-30.954l-56.808 55.063z" fill="url(#aq)"/>
  <path d="M271.33 417.81s27.693 9.9569 31.007 10.238c3.3136.28073 4.9816-1.7324 7.0547-3.248 2.0732-1.5156 6.3467-5.7565 6.3467-5.7565s2.457 10.597 4.8582 12.775c2.4012 2.1782 1.8826 2.0925 4.6713 1.2054 2.7887-.88711 8.3815-8.7546 8.3815-8.7546s2.1577 10.416 3.6354 12.133c1.4777 1.7173 2.7337 1.9116 5.4674.93709 2.7338-.97453 7.946-7.9849 7.946-7.9849l2.718 9.9146s1.0592 2.3979 2.7296 3.0456c1.6703.64768 3.2235.67298 5.683-1.1962s6.0168-10.332 6.0168-10.332l-1.3677-.74694-8.6982 8.5259s-1.9358-10.666-4.1782-12.897c-2.2425-2.2311-1.884-2.0196-4.6713-1.2054-2.7873.81419-8.0146 8.4275-8.0146 8.4275s-2.6235-9.9044-4.3526-12.169c-1.7291-2.2649-2.3826-2.1007-3.7124-2.1994s-2.4474 1.2341-2.4474 1.2341-4.7303 6.3404-6.2199 8.278-4.0814-12.178-5.2867-13.697c-1.2053-1.5197-1.6387-1.9722-4.6713-1.2054-3.0326.76684-10.223 9.4831-10.223 9.4831l-5.485-1.9136 1.1246-11.246-11.544-2.1838z" fill="url(#ap)"/>
  <path d="M187.97 454.65c4.2375-5.602 111.69-129.65 120.88-136.94 9.1929-7.2957 9.2851-5.9276 14.111-6.1928 4.8259-.26518 9.1311 1.4937 12.967 4.0648s9.0256 10.856 9.0256 10.856-60.812 63.889-60.006 66.757c.80595 2.8682 4.8978 14.879 4.8978 14.879s-62.481 77.495-73.812 80.176c-11.33 2.6801-11.808 2.1901-16.715.45689-4.9067-1.7332-8.1446-3.8203-11.031-9.4134-2.8868-5.5931-4.5534-19.038-.31598-24.64z" fill="#c72d25"/>
  <path transform="matrix(.48302 -.07789 .07789 .48302 -428.38 132.05)" d="M1450.8 617.84c-17.69 3.7903-31.697 17.158-45.446 28.386-87.277 69.988-173.59 141.38-258.46 214.43-8.0385 13.453-7.7753 31.308-.3125 44.844 11.659 15.341 35.789 15.189 50.125 3.5625 32.746-22.089 62.654-48.072 93.019-73.363 19.174-16.323 38.207-33.062 56.981-49.887-1.6686-11.182-6.5954-23.43-1.625-34.375 21.879-23.972 49.557-41.658 74.276-62.577 20.93-16.406 41.938-32.695 63.068-48.86-5.5302-12.123-17.685-22.813-31.625-22.156z" fill="#cf453a" filter="url(#ao)"/>
  <g fill="none">
   <path transform="matrix(.62769 -.7043 .69679 .62306 46.791 656.35)" d="m248.84 2.0814s1.7442 5.5233 9.8837 7.2674c8.1395 1.7442 35.465 1.7442 35.465 1.7442" filter="url(#Q)" opacity=".50192" stroke="url(#an)" stroke-width="3"/>
   <path transform="matrix(.62769 -.7043 -.69679 -.62306 160.54 681.58)" d="M191.86 126.74s1.7442 5.5233 9.8837 7.2674c8.1395 1.7442 62.791.87209 62.791.87209" filter="url(#Q)" opacity=".50192" stroke="url(#am)" stroke-width="3"/>
   <path transform="matrix(.62769 -.7043 .69679 .62306 46.791 656.35)" d="m290.41-25.535 154.94-.5814" filter="url(#ak)" opacity=".61303" stroke="url(#al)" stroke-linecap="round" stroke-width="2"/>
   <path transform="matrix(.62769 -.7043 .69679 .62306 46.791 656.35)" d="m445.35-26.116c14.451-4.6356 29.353 8.6607 23.844 24.667" filter="url(#ai)" opacity=".7" stroke="url(#aj)" stroke-width="2"/>
  </g>
  <g transform="matrix(.44927 -.21547 .21547 .44927 -18.663 123.37)">
   <path transform="translate(4.7384 15.992)" d="m245.6 604.36c0 4.8444-3.9272 8.7716-8.7716 8.7716s-8.7716-3.9272-8.7716-8.7716 3.9272-8.7716 8.7716-8.7716 8.7716 3.9272 8.7716 8.7716z" fill="#4d4d4d" filter="url(#ah)"/>
   <path d="M241.57 611.59c-4.1388 0-7.6085 2.8627-8.5312 6.7188h17.062c-.92279-3.856-4.3924-6.7188-8.5312-6.7188zm-8.4062 11.25c1.0719 3.6335 4.4254 6.2812 8.4062 6.2812s7.3343-2.6477 8.4062-6.2812h-16.812z" fill="url(#ag)"/>
  </g>
 </g>
 <path d="m164.94 169.36c-2.3045-2.075-4.0793-2.4832-5.3274-1.2273-0.49551 0.5007-0.87194 1.0863-1.1263 1.7566-0.21504 0.52421-0.31494 0.91745-0.29942 1.1856l5.5006 4.9528c1.2845-0.36567 2.202-0.89141 2.7495-1.5771 1.1493-1.4594 0.65177-3.1558-1.497-5.0906zm1.5554-1.5351c1.1708 1.0542 1.8953 2.2037 2.1709 3.4518 0.32044 1.403 3e-3 2.6615-0.95446 3.7743-0.71405 0.84577-1.7342 1.4607-3.0588 1.8461l4.9993 4.5014-1.7723 0.95707-11.097-9.9916c-0.0755-0.48693-0.0512-1.0041 0.0671-1.5511 0.26658-1.2794 0.9332-2.5254 2.0014-3.7366l0.0381-2e-3c0.97361-1.1092 2.1851-1.549 3.633-1.3206 1.3362 0.2004 2.6598 0.88941 3.9725 2.0714z" style="fill:#fff;stroke-width:.21295"/>
 <path d="m177.53 162.16c1.5703 1.4139 2.5161 2.5504 2.8374 3.4095 0.31995 0.86066 0.26109 1.897-0.17951 3.109-0.36479 0.97591-0.91192 1.8938-1.6385 2.7534l-1.0982-0.56708c0.64959-0.95409 1.0728-1.6568 1.2696-2.108 0.38389-0.89167 0.45134-1.68 0.20819-2.3654-0.20106-0.55531-0.84826-1.3224-1.9419-2.3071l-0.36712-0.33056c-0.42998 1.3585-1.1222 2.5647-2.0736 3.6213-0.625 0.69413-1.3939 1.1107-2.307 1.2438-1.01 0.16316-1.8813-0.0851-2.614-0.74484l-5.8677-5.2833 0.78664-1.8446 5.9063 5.318c0.63089 0.56805 1.3001 0.80194 2.0077 0.70166s1.3461-0.4806 1.9157-1.138c0.56806-0.65881 0.94178-1.5764 1.1153-2.7524l-6.8904-6.2041 1.2694-1.4099z" style="fill:#fff;stroke-width:.21295"/>
 <path d="m183.4 157.48c-0.1375 0.18063-0.27022 0.34043-0.398 0.48234-0.71805 0.79748-1.4675 1.2483-2.2485 1.3495-0.77961 0.0996-1.5056-0.15183-2.1766-0.756l-5.553-5-0.86944 0.96561-0.88694-0.79861 0.86944-0.96561-2.3554-2.1208 0.76674-1.8597 2.8567 2.5722 1.4264-1.5842 0.88695 0.79861-1.4264 1.5842 5.5145 4.9652c0.52908 0.47639 1.0317 0.67198 1.5063 0.58538 0.39992-0.0812 0.85188-0.37533 1.3531-0.87926z" style="fill:#fff;stroke-width:.21295"/>
 <path d="m190.97 148.84-1.2694 1.4099-5.442-4.9c-0.55377-0.49861-1.1471-0.7982-1.777-0.89894-0.71847-0.10785-1.3159 0.10277-1.7937 0.63339-0.58194 0.64632-0.96882 1.7615-1.1606 3.3457l6.5233 5.8736-1.2694 1.4098-13.008-11.712 0.8252-1.8098 5.9248 5.3347c0.15554-1.4911 0.71309-2.7711 1.6756-3.84 0.67222-0.74657 1.4681-1.1248 2.3861-1.1362 0.91937-0.0129 1.7524 0.31821 2.499 0.99043z" style="fill:#fff;stroke-width:.21295"/>
 <path d="m193.32 137.39c-0.8854-0.79722-1.7679-1.2874-2.6478-1.4735-1.0633-0.23675-1.992 0.0471-2.7833 0.84839-1.3022 1.6262-0.88911 3.3946 1.2334 5.3057 0.97333 0.87638 1.9307 1.4479 2.8748 1.7115 1.2036 0.33521 2.1723 0.0846 2.9028-0.75472 1.3849-1.5629 0.85873-3.4415-1.58-5.6374zm1.3995-1.5357c1.2602 1.1347 2.0189 2.4015 2.2773 3.7989 0.30036 1.5525-0.10996 2.954-1.2333 4.2019-1.1139 1.2371-2.4524 1.7776-4.0166 1.6288-1.4056-0.12327-2.7379-0.75305-3.9981-1.8878-1.1846-1.0667-1.8742-2.3048-2.0716-3.7171-0.21212-1.4954 0.20875-2.8313 1.2629-4.0021 1.0542-1.1708 2.3444-1.7352 3.8662-1.6944 1.4252 0.0488 2.7286 0.60509 3.9133 1.6718z" style="fill:#fff;stroke-width:.21295"/>
 <path d="m206.38 131.72-1.2694 1.4099-5.7505-5.1778c-0.63089-0.56805-1.2938-0.82138-1.9902-0.76137-0.6949 0.0614-1.3217 0.41319-1.8758 1.0566-0.59043 0.68056-0.94501 1.5148-1.0653 2.5014l7.0832 6.3778-1.2694 1.4098-7.2575-6.5347c0.13978-1.3433 0.42636-2.4371 0.85978-3.2814 0.41103-0.79461 0.83884-1.4373 1.2791-1.9262 0.30138-0.33473 0.61711-0.62024 0.94856-0.85806 0.62663-0.43849 1.2697-0.67501 1.9308-0.70819 0.73423-0.0399 1.3706 0.1839 1.912 0.6714z" style="fill:#fff;stroke-width:.21295"/>
 <path d="m138.47 181.09c-0.64977 0.72841-1.2116 1.4768-1.6526 2.1835-1.2995 2.0812-0.9291 3.0051 0.29537 4.1076l1.6172 1.4561 3.8206-4.2432 0.53905 0.48537-5.2544 5.8356c-1.1104 1.2332-1.3414 2.9804-0.23548 4.5878 1.2654 1.8449 2.2584 2.7702 4.3124 3.8829 1.5278 0.82946 3.0714 0.91507 4.1818-0.31811l1.3136-1.4589-1.9386-1.7455c-1.4005-1.261-1.5448-3.5852-0.24917-5.0241l3.8161-4.2382c1.0623-1.1798 0.9389-2.9962-0.24592-4.063l-4.0404-3.638c-1.1499-1.0354-2.8872-0.84308-4.1159 0.13561-0.77766 0.61966-1.5138 1.3263-2.1635 2.0548zm-0.76549 3.4658c0.39464-0.43829 1.0807-0.46867 1.528-0.0659 0.4457 0.40131 0.48383 1.0837 0.0892 1.522-0.39605 0.43986-1.0773 0.4717-1.523 0.0704-0.44728-0.40274-0.49019-1.0866-0.0941-1.5265z" style="fill:url(#aa);stroke-width:.21295"/>
 <path d="m147.38 180.31 1.8842 1.6966c1.4608 1.3153 1.5752 3.6608 0.30356 5.0731l-3.8161 4.2382c-1.0453 1.1609-0.9167 3.0162 0.24592 4.063l4.0404 3.638c1.1499 1.0354 2.7266 0.64447 4.0665-0.18012 1.6043-0.98755 2.8354-2.2113 3.8161-4.2382 0.65255-1.3467 0.97855-2.9605-0.24592-4.063l-1.6172-1.4561-3.8161 4.2382-0.53905-0.48536 5.7264-6.3598c1.1104-1.2332 0.66396-2.4672-0.24097-4.0586-0.93027-1.6398-2.2254-2.7718-4.3124-3.8829-1.502-0.80061-2.9498-1.0502-4.0615 0.18458zm8.0858 11.597c0.39606-0.43986 1.0773-0.4717 1.523-0.0704 0.44728 0.40273 0.49019 1.0866 0.0941 1.5265-0.39464 0.43829-1.0807 0.46867-1.528 0.0659-0.44569-0.40131-0.48383-1.0838-0.0892-1.522z" style="fill:url(#ab);stroke-width:.21295"/>
 <path d="m199.14 120.23 0.22257-0.24718-1.5503-1.3959 0.52724-0.58556-0.18479-0.16638-1.277 1.4183 0.18479 0.16639 0.52723-0.58556 1.5503 1.3959m0.94715-1.0519 0.19015-0.21119-1.4159-1.2749 1.8284 0.81636 0.2117-0.23511-0.98085-1.748 1.4111 1.2706 0.20744-0.23038-1.7351-1.5623-0.27442 0.30478 1.0165 1.8604-1.8873-0.89324-0.30683 0.34077 1.7351 1.5623" style="fill:#fff"/>
</svg>
