<svg width="18" height="24" version="1.1" viewBox="0 0 18 24" xmlns="http://www.w3.org/2000/svg">
 <title>Lightbulb image</title>
 <style>path{fill:#333}@media(prefers-color-scheme:dark){path{fill: #ccc}}</style>
 <path d="m9 0c-4.957 0-9 4.043-9 9 0 1.918 0.84375 3.9062 2 5.6875 0.85938 1.3242 1.8867 2.543 3 3.4688v2.8438c0 1.0938 0.90625 2 2 2l1 1h2l1-1c1.0938 0 2-0.90625 2-2v-2.8438c1.1133-0.92578 2.1406-2.1445 3-3.4688 1.1562-1.7812 2-3.7695 2-5.6875 0-4.957-4.043-9-9-9zm0 2c3.8789 0 7 3.1211 7 7 0 1.3086-0.64453 3.0352-1.6562 4.5938-0.90234 1.3906-2.0898 2.6289-3.1875 3.4062h-4.3125c-1.0977-0.77734-2.2852-2.0156-3.1875-3.4062-1.0117-1.5586-1.6562-3.2852-1.6562-4.5938 0-3.8789 3.1211-7 7-7zm-1.75 17h3.5c0.07813 0.05469 0.16016 0.09375 0.25 0.125v1.875h-4v-1.875c0.08984-0.03125 0.17188-0.07031 0.25-0.125z"/>
</svg>
