<?xml version="1.0" encoding="UTF-8" standalone="no"?>
<svg width="324" xmlns="http://www.w3.org/2000/svg" xmlns:xlink="http://www.w3.org/1999/xlink" height="424">
 <defs>
  <linearGradient id="linearGradient1895" y2=".59" xlink:href="#linearGradient1864" x2=".67254" y1=".91" x1=".23944"/>
  <linearGradient id="linearGradient1872" y2=".39216" xlink:href="#linearGradient1864" x2=".35211" y1=".029412" x1=".81690"/>
  <linearGradient id="linearGradient1897" y2=".43077" xlink:href="#linearGradient1864" x2=".86268" y1=".96032" x1=".31338"/>
  <linearGradient id="linearGradient1871" y2=".30114" xlink:href="#linearGradient1864" x2=".40141" y1="-.073864" x1=".93662"/>
  <linearGradient id="linearGradient1899" y2=".38384" xlink:href="#linearGradient1874" x2=".77459" y1=".68182" x1=".10246"/>
  <linearGradient id="linearGradient1892" y2=".68687" xlink:href="#linearGradient1864" x2=".60357" y1="1.0505" x1="-.010714"/>
  <linearGradient id="linearGradient1880">
   <stop id="stop1881" offset="0"/>
   <stop id="stop1883" stop-opacity="0" offset="1"/>
  </linearGradient>
  <linearGradient id="linearGradient1885" y2=".64646" xlink:href="#linearGradient1880" x2=".60753" y1=".92424" x1="-.043011"/>
  <linearGradient id="linearGradient1874">
   <stop id="stop1875" stop-color="#fff" stop-opacity="0" offset="0"/>
   <stop id="stop1877" stop-color="#fff" stop-opacity=".247" offset=".5"/>
   <stop id="stop1876" stop-color="#fff" stop-opacity="0" offset="1"/>
  </linearGradient>
  <linearGradient id="linearGradient1873" y2=".45960" xlink:href="#linearGradient1874" x2=".73134" y1=".65657" x1=".38806"/>
  <linearGradient id="linearGradient1879" y2=".54040" xlink:href="#linearGradient1880" x2=".56364" y1=".065657" x1="1.2273"/>
  <linearGradient id="linearGradient1864">
   <stop id="stop1865" stop-color="#fff" offset="0"/>
   <stop id="stop1866" stop-color="#fff" stop-opacity="0" offset="1"/>
  </linearGradient>
 </defs>
 <g id="g1905" stroke-width="1.25" fill-rule="evenodd">
  <path id="path1195" d="m146.55 6.7387c-16.814-0.073925-36.205 2.8007-56.15 8.8468-53.186 16.123-90.399 48.885-83.052 73.122 0 0 115.93 305.72 115.96 305.83 7.3472 24.237 57.346 29.138 110.53 13.015 53.186-16.123 90.399-48.885 83.052-73.122l-117.28-311.32c-5.9665-10.906-27.607-16.26-53.065-16.371z"/>
  <path id="path1217" fill="#eca548" d="m120.78 88.382c-53.186 16.123-101.44 16.599-111.09 1.7524 0 0 27.567 75.464 27.602 75.58 7.3471 24.237 54.797 29.138 107.98 13.015 53.186-16.123 90.399-48.885 83.052-73.122l-30.091-81.831c-1.7184 23.929-20.978 44.115-77.457 64.605z"/>
  <path id="path1842" fill="#dcdcdc" d="m20.023 80.715c-16.993-46.73 144.44-80.715 161.43-58.625 21.241 45.031-134.24 85.813-161.43 58.625z"/>
  <path id="path1839" fill="#eca548" d="m140.95 8.2733c-17.224 0.62831-35.446 3.6109-50.102 9.0274-60.324 17.842-88.367 52.608-82.42 69.601 11.895 28.888 82.07 14.242 116.9 2.3471 53.527-17.842 77.497-45.907 72.4-65.448-2.1241-11.152-28.075-16.574-56.782-15.527zm3.0693 14.715c14.484-1.0222 25.579 0.82309 28.978 6.7705 13.594 22.09-123.28 73.918-138.57 43.331-8.2839-18.48 66.142-47.035 109.59-50.102z"/>
  <path id="path1843" d="m201.39 25.877l-3.9184-3.9771c1.675 6.2073-0.19113 17.286-3.5305 23.476-3.3393 6.1901-8.9842 12.335-16.34 18.145-14.711 11.62-36.169 21.859-58.949 28.978-22.779 7.1186-46.891 11.151-66.893 10.562-20.002-0.58904-37.532-6.8794-44.02-17.496l-0.6294 3.8477c7.531 12.324 23.99 16.654 44.559 17.259 20.568 0.60574 44.966-3.5236 68.066-10.743 23.101-7.219 44.884-17.573 60.122-29.61 7.6194-6.0185 13.662-12.425 17.332-19.228 3.6702-6.8034 6.135-14.04 4.199-21.214z"/>
  <path id="path1886" d="m153.32 20.821c-22.82-0.18326-45.054 6.3962-66.373 13.966-17.298 6.6719-34.935 10.958-49.245 25.924-5.0576 3.812-8.4758 11.533-3.0624 16.569 8.1299 9.1072 21.685 9.0785 32.921 8.2515 25.35-2.7305 49.664-11.687 72.437-22.859 11.813-6.3073 24.305-12.779 32.672-23.553 4.1938-4.7047 2.3507-12.048-3.3357-14.512-4.8351-2.7676-10.534-3.5454-16.014-3.7867zm-10.02 3.7915c8.7902-0.41531 18.858-1.0739 26.224 4.6149 5.353 5.7308-3.5719 11.869-7.4918 15.595-17.526 13.346-38.085 22.11-58.832 29.141-17.13 5.262-35.225 10.19-53.259 7.4833-6.0492-1.0798-14.452-4.7006-14.607-10.918 0.75495-6.1615 8.1928-12.11 13.437-15.88 22.332-13.471 47.683-20.452 72.971-26.534 7.1038-1.6089 14.294-2.8988 21.558-3.5024z"/>
  <path id="path1856" fill="#c8c8c8" stroke="#000" d="m88.864 22.717c-15.322 5.199-26.032 14.455-23.922 20.673l6.8695 14.552c2.3756 6.0095 15.912 6.0201 31.046 0.88528 15.322-5.199 26.032-14.455 23.922-20.673-0.15823-0.46633-6.2544-13.44-6.3192-13.631-1.0549-3.1089-14.874-8.2882-31.596-1.8055z"/>
  <path id="path1860" d="m118.84 23.312c-0.79966 2.9703-3.6474 6.7147-7.8538 9.6056s-9.7411 5.4467-15.437 7.4025c-5.6957 1.9557-11.537 3.3303-16.61 3.8818-5.0731 0.55143-10.256 0.75001-12.892-2.0036l-0.405 3.5477c3.284 1.5556 8.2561 2.5639 13.658 1.9767 5.4022-0.58718 11.487-1.9339 17.423-3.972 5.9357-2.0382 11.662-4.7013 16.249-7.8538 4.5872-3.1526 8.868-5.9011 9.2982-11.194l-3.4304-1.3907z"/>
  <path id="path1872" fill="url(#linearGradient1873)" d="m64.297 105.43c39.319-1.7542 80.91-15.45 113.21-36.761 0.091553 0.40506 119.9 306.61 119.8 306.72-4.9802 6.9408-57.366 37.415-107.54 40.412 0 0-125.47-310.37-125.47-310.37z"/>
  <path id="path1878" fill="url(#linearGradient1879)" d="m201.96 33.959l27.484 74.768c2.5756 17.385-20.991 41.087-35.336 48.688-3.3985-8.4964-32.519-79.892-32.519-79.892 11.59-3.8634 37.142-23.325 40.371-43.564z"/>
  <path id="path1884" fill="url(#linearGradient1885)" d="m10.832 93.234l28.654 78.556c12.234 15.776 31.229 17.707 59.883 16.098 0.32194 0.32196-24.468-83.064-24.468-83.064-17.707 2.8976-50.868 2.2537-64.068-11.59z"/>
  <path id="path1891" fill="url(#linearGradient1892)" d="m47.754 35.734c-7.4448 2.6802-44.967 29.779-39.606 49.434 8.3382 22.037 64.323 20.548 94.4 11.912-19.059-7.4448-63.132-16.081-54.794-61.345z"/>
  <path id="path1893" fill="url(#linearGradient1895)" d="m77.809 30.091s-12.188 4.4524-11.294 12.791c7.147 5.9558 39.606-4.7647 41.989-8.636-14.033 2.7963-25.08 7.3649-30.694-4.1546z"/>
  <path id="path1896" fill="url(#linearGradient1897)" d="m69.195 47.348s2.9779 9.2316 5.9558 11.912c10.72 3.5735 19.059-0.2978 24.419-1.4889-19.654-0.89338-19.654-9.5294-30.375-10.423z"/>
  <path id="path1898" fill="url(#linearGradient1899)" d="m92.721 44.668c7.147-1.489 16.379-5.9558 21.441-9.8272 1.7868 2.3823 6.2536 11.912 6.2536 11.912-2.0845 3.5735-11.316 9.2316-19.059 10.72-1.489-1.7868-8.636-12.805-8.636-12.805z"/>
  <path id="path1869" fill="url(#linearGradient1872)" d="m86.308 25.989s23.569-7.9895 31.559-1.1984c-1.5979 4.7937-3.9948 7.1906-8.389 8.389-4.3942-1.9974 1.5979-10.786-23.17-7.1906z"/>
  <path id="path1870" fill="url(#linearGradient1871)" d="m89.904 16.801c31.159-9.5874 100.27-14.781 107.86 7.1906 4.3943 17.577-13.183 39.548-39.548 52.331 21.971-29.162-17.177-63.916-68.31-59.522z"/>
  <path id="path1876" d="m146.73 4.6624c-17.026-0.074855-36.588 2.8429-56.692 8.9371-26.58 8.0573-49.188 20.165-64.456 33.492-14.994 13.087-23.021 27.513-19.95 40.443 0.014031 0.05912-0.014521 0.12147 0 0.18054 0.79065 3.1627 115.97 307 116 307.11 2.7836 9.1825 11.229 15.579 22.839 19.319 11.254 3.6254 25.761 4.7535 41.887 3.7012 10.806-1.0542 43.789-6.6728 48.116-8.8468 17.366-5.2642 33.796-12.646 46.823-20.575 6.7138-4.5618 11.056-7.0151 16.188-12.104 7.9408-6.7329 14.26-13.705 18.055-20.763 3.9827-7.407 5.3587-14.98 3.2499-21.936l-116.22-309.87c-3.3636-6.1479-11.984-12.068-21.539-14.844-9.5548-2.776-21.451-4.1864-34.304-4.2429zm0 3.6109c12.606 0.055407 24.136 1.423 33.221 4.0623 9.0843 2.6393 15.542 6.6167 18.145 11.374l117.18 310.99c1.7732 5.8493 0.69141 12.312-2.979 19.138-3.6705 6.8264-9.8829 13.942-18.145 20.763-3.1626 1.8449-10.654 8.0435-15.708 11.013-6.0618 3.4262-27.891 14.777-44.956 19.95-14.702 4.0308-29.139 7.271-44.895 8.9299-16.413 1.2109-32.073-0.25433-43.032-3.7843-10.958-3.5299-18.069-9.2752-20.402-16.971l-116-306.39c-2.9931-11.063 4.0228-24.585 18.777-37.464 14.754-12.878 36.944-24.93 63.101-32.86 19.786-5.9979 39.096-8.8296 55.699-8.7566z"/>
 </g>
</svg>