<?xml version="1.0" encoding="UTF-8" standalone="no"?>
<!-- Created with Inkscape (http://www.inkscape.org/) -->
<svg xmlns:dc="http://purl.org/dc/elements/1.1/" xmlns:cc="http://creativecommons.org/ns#" xmlns:rdf="http://www.w3.org/1999/02/22-rdf-syntax-ns#" xmlns:svg="http://www.w3.org/2000/svg" xmlns="http://www.w3.org/2000/svg" xmlns:sodipodi="http://sodipodi.sourceforge.net/DTD/sodipodi-0.dtd" xmlns:inkscape="http://www.inkscape.org/namespaces/inkscape" width="208.73647mm" height="167.03107mm" viewBox="0 0 208.73647 167.03107" version="1.1" id="svg4851" inkscape:version="0.92.1 r15371" sodipodi:docname="holding-hands.svg">
  <title id="title5402">Holding hands</title>
  <defs id="defs4845"/>
  <sodipodi:namedview id="base" pagecolor="#ffffff" bordercolor="#666666" borderopacity="1.0" inkscape:pageopacity="0.0" inkscape:pageshadow="2" inkscape:zoom="0.35" inkscape:cx="711.60547" inkscape:cy="464.22067" inkscape:document-units="mm" inkscape:current-layer="layer1" showgrid="false" fit-margin-top="0" fit-margin-left="0" fit-margin-right="0" fit-margin-bottom="0" inkscape:window-width="1440" inkscape:window-height="863" inkscape:window-x="0" inkscape:window-y="0" inkscape:window-maximized="1"/>
  <metadata id="metadata4848">
    <rdf:RDF>
      <cc:Work rdf:about="">
        <dc:format>image/svg+xml</dc:format>
        <dc:type rdf:resource="http://purl.org/dc/dcmitype/StillImage"/>
        <dc:title>Holding hands</dc:title>
        <dc:date>2018-02-11</dc:date>
        <dc:creator>
          <cc:Agent>
            <dc:title>Onsemeliot</dc:title>
          </cc:Agent>
        </dc:creator>
        <dc:publisher>
          <cc:Agent>
            <dc:title>Onsemeliot</dc:title>
          </cc:Agent>
        </dc:publisher>
        <dc:subject>
          <rdf:Bag>
            <rdf:li>hands</rdf:li>
            <rdf:li>love</rdf:li>
            <rdf:li>couple</rdf:li>
          </rdf:Bag>
        </dc:subject>
        <dc:description>Holding hands as a simple vector shape</dc:description>
        <cc:license rdf:resource="http://creativecommons.org/publicdomain/zero/1.0/"/>
      </cc:Work>
      <cc:License rdf:about="http://creativecommons.org/publicdomain/zero/1.0/">
        <cc:permits rdf:resource="http://creativecommons.org/ns#Reproduction"/>
        <cc:permits rdf:resource="http://creativecommons.org/ns#Distribution"/>
        <cc:permits rdf:resource="http://creativecommons.org/ns#DerivativeWorks"/>
      </cc:License>
    </rdf:RDF>
  </metadata>
  <g inkscape:label="Layer 1" inkscape:groupmode="layer" id="layer1" transform="translate(236.6599,-104.62732)">
    <path style="fill:#755;stroke:none;stroke-width:0.26458332px;stroke-linecap:butt;stroke-linejoin:miter;stroke-opacity:1" d="m -91.143203,112.83739 c -14.095807,26.09338 -24.005247,47.26111 -28.756377,54.01272 -4.75114,6.75162 -8.2521,13.7533 -12.50312,16.75402 -4.25101,3.00072 -12.82634,4.97745 -18.62935,7.87704 -4.79406,2.39544 -10.25258,7.62695 -17.25425,12.50311 -5.46389,3.80521 -3.65206,7.18236 -5.25136,9.87743 -1.57876,2.30432 -3.24978,3.41986 -6.00118,8.37675 1.32732,3.13038 6.75114,3.50114 12.12743,-0.99994 5.15193,-4.31325 5.3971,-4.71782 8.2522,-7.00164 2.56759,-2.05383 5.62654,-4.0013 5.62654,-4.0013 0.28607,-4.16605 1.2501,-9.37691 3.87573,-12.75271 -2.25054,6.37652 -2.00056,8.752 -2.75074,13.87822 -0.50692,3.46394 -3.00085,8.00167 -3.00085,10.75231 0,2.75066 0.81113,11.19546 1.45108,16.16077 0.6991,5.42435 3.85191,5.78117 6.15207,9.4816 1.36679,-4.324 2.58377,-10.12841 2.33371,-14.12937 -0.13236,-2.11769 1.26341,0.29976 1.25057,1.25005 -0.0657,4.86471 -1.51452,11.25562 -2.27324,15.9458 1.03085,2.84336 1.5937,5.14518 1.85259,7.7835 2.28237,2.75973 5.35359,1.24241 6.26164,0.73794 -0.91087,-8.56958 5.27331,-15.87585 9.22786,-19.47581 -2.68592,5.16636 -7.67912,11.59899 -7.67912,17.35036 0,4.27303 1.90902,6.86658 5.67873,7.40523 2.76764,0.39547 3.62017,-1.08179 4.37596,-3.00033 0.42106,-1.06887 0.89682,-2.42223 1.449,-3.9362 -2.81071,-7.41722 1.78588,-11.65387 4.7532,-12.15739 -5.24427,-3.37964 -8.69703,-5.94375 -9.42113,-11.18537 -0.59404,-4.30018 2.18143,-8.06476 5.6193,-9.98854 -5.05086,-4.82024 -0.70043,-15.43594 8.77879,-13.12168 1.73831,0.4244 2.72658,0.97497 3.71605,1.43506 -0.64208,-6.88189 5.14316,-9.58232 11.29544,-8.96896 3.489187,0.34787 6.035707,1.24141 7.102917,1.60558 0.40413,-2.32412 1.40638,-5.57182 2.84014,-9.1984 4.25102,-10.75257 49.98044,-62.36999 62.01482,-79.01895 8.12966,-11.24698 -56.64105,-15.12451 -62.51505,-4.2509 z m -140.362487,13.76505 c 44.87167,48.99486 50.79118,52.22257 54.34707,56.9836 4.60536,6.1662 9.83265,12.18763 10.87995,16.46412 4.62559,-2.70553 10.88649,-9.55776 18.34255,-12.25455 8.79104,-3.17963 14.31803,-4.5172 17.2558,-8.75399 -4.82349,0.0217 -7.22517,-1.32837 -10.00094,-1.96164 2.9942,-0.47689 4.65883,-0.25288 6.50399,-0.56431 -12.65711,-14.04397 -20.47999,-29.29664 -40.96287,-63.42765 -7.38072,-12.29863 -81.42049,-13.842763 -56.36555,13.51442 z m 140.544907,78.1668 c -0.43387,0.0409 -0.53167,0.63464 -0.5085,1.43299 1.35052,0.91564 2.1837,1.63126 4.75785,3.77703 -11.95316,-6.06789 -20.362717,-6.63116 -22.867337,-0.54518 -1.6862,4.09731 1.69689,5.77431 4.12223,6.77684 4.3183,1.785 12.807787,5.42546 15.546857,6.68642 2.45633,1.13079 6.87664,0.11781 8.84752,-3.6618 1.93173,-3.70456 -0.84614,-8.16748 -2.09031,-9.30692 -1.73392,-1.58797 -4.81505,-3.69282 -7.25434,-5.0028 -0.22733,-0.12208 -0.40935,-0.17019 -0.55397,-0.15658 z m -62.975487,7.4843 c -6.19505,4.03587 -9.2322,8.31537 -16.04553,12.50466 -2.74196,10.29677 0.0346,12.33695 0.7674,15.16239 1.60046,6.17114 0.85562,8.75615 2.60604,14.00741 1.75042,5.25125 4.62587,1.80552 6.94893,7.69514 3.85018,9.76134 15.69715,6.32616 12.94649,-5.92677 -2.75066,-12.25293 -10.12119,-12.12571 -15.53032,-11.01587 3.66709,-2.90457 7.52203,-2.24224 7.52203,-2.24224 -1.48181,-3.55845 -1.19323,-5.86605 -2.29185,-14.38723 -1.21431,-9.41842 0.7685,-10.14735 3.07681,-15.79749 z m 36.74918,0.4284 c -5.72373,-0.0733 -9.60005,7.58026 -4.43229,11.80806 2.59208,2.12061 6.65042,1.77519 16.58866,8.26978 5.02927,3.28661 10.989757,8.32256 12.937707,9.64438 2.23304,-0.0173 8.45163,-2.76848 7.95248,-7.70186 -0.43618,-4.31095 -0.59906,-4.83429 -4.33203,-8.39897 -3.73296,-3.56467 -10.87458,-5.83483 -13.438457,-6.80734 -2.56387,-0.9725 -9.46617,-4.9355 -12.731,-6.27713 -0.8721,-0.35838 -1.72739,-0.52645 -2.54507,-0.53692 z m -5.17384,13.87719 c -4.42111,0.086 -8.97794,7.35315 -2.18281,13.97796 1.58233,1.54267 3.80888,2.93227 7.04918,4.86947 4.68641,0.54885 10.28217,8.44849 14.42496,13.51958 1.85441,2.26995 6.333247,1.01822 7.877547,-0.5302 2.20905,-2.21495 5.8883,-5.13493 4.95112,-9.01753 -0.93993,-3.894 -3.42976,-5.52886 -8.45736,-9.88467 -7.691737,-6.66395 -18.572907,-11.14076 -22.061187,-12.62714 -0.51757,-0.22054 -1.05851,-0.31804 -1.60145,-0.30747 z m 3.7362,20.44423 c -0.13677,-10e-4 -0.27391,0.003 -0.41237,0.0129 -3.93018,0.28382 -7.6782,4.99791 -4.44573,11.82202 2.05248,4.333 3.97836,5.83475 5.48132,8.04498 1.50296,2.21024 2.57748,3.64474 4.77387,4.06694 6.30259,1.21152 8.43814,-1.93817 10.2526,-4.87826 1.61378,-2.6149 -2.62021,-7.72544 -5.3237,-10.69857 -2.65979,-2.92508 -6.08612,-8.32623 -10.32599,-8.37003 z m -5.8446,12.68295 c -0.97248,2.67518 -1.92116,4.91784 -1.84898,6.38203 0.23578,4.78341 4.16039,7.86628 8.34212,3.47835 -1.82838,-2.77885 -4.34858,-4.51633 -6.49314,-9.86038 z" id="path4797" inkscape:connector-curvature="0" sodipodi:nodetypes="sssssccssccssscscccccsccccscscscssssscscccsscccsscccccccssssccsccssccsccccscssssccscscccsscccc"/>
  </g>
</svg>
